<svg xmlns="http://www.w3.org/2000/svg" width="140" height="140" viewBox="0 0 140 140" version="1.1">
	<path d="M 14.500 3.375 C 9.496 5.584, 5.231 9.826, 3.539 14.278 C 2.126 17.998, 1.968 24.878, 2.217 72.165 L 2.500 125.829 5.500 130.076 C 7.150 132.411, 10.300 135.262, 12.500 136.411 C 16.412 138.454, 17.683 138.500, 70 138.500 C 122.317 138.500, 123.588 138.454, 127.500 136.411 C 129.700 135.262, 132.850 132.411, 134.500 130.076 L 137.500 125.829 137.772 71.665 L 138.044 17.500 135.772 13.013 C 134.438 10.379, 131.710 7.283, 129.165 5.513 L 124.829 2.500 71.165 2.276 C 28.425 2.097, 16.889 2.321, 14.500 3.375 M 46.931 24.355 C 34.519 31.585, 23.156 38.298, 21.681 39.273 L 19 41.046 19 69.811 L 19 98.575 44.638 113.356 L 70.276 128.137 95.388 113.691 L 120.500 99.245 120.765 69.728 L 121.029 40.211 95.633 25.606 C 81.665 17.573, 70.071 11.047, 69.868 11.105 C 69.666 11.163, 59.344 17.126, 46.931 24.355 M 71 69.500 C 71 106.324, 71.338 124.909, 72 124.500 C 73.375 123.650, 73.375 15.350, 72 14.500 C 71.338 14.091, 71 32.676, 71 69.500 M 59 19.365 L 51.500 23.509 51.500 41.472 L 51.500 59.435 46 62.154 C 42.975 63.650, 39.938 64.902, 39.250 64.937 C 38.298 64.985, 38 61.054, 38 48.432 L 38 31.864 30.001 36.182 L 22.002 40.500 22.001 69.147 L 22 97.794 29.750 102.363 L 37.500 106.932 37.778 93.463 L 38.056 79.994 44.667 76.997 C 48.302 75.349, 51.439 74, 51.638 74 C 51.837 74, 52 83.182, 52 94.405 L 52 114.810 56.750 117.537 C 59.363 119.036, 62.962 121.141, 64.750 122.213 L 68 124.163 68 69.582 C 68 39.562, 67.662 15.050, 67.250 15.110 C 66.838 15.171, 63.125 17.085, 59 19.365 M 87.997 24.667 C 87.992 26.218, 99.385 64.948, 99.741 64.592 C 99.936 64.398, 100.968 58.447, 102.035 51.369 C 103.103 44.291, 104.191 37.285, 104.453 35.801 C 104.891 33.323, 104.299 32.749, 97.237 28.801 C 87.924 23.595, 88.001 23.629, 87.997 24.667 M 113.824 71.242 C 110.702 86.224, 108.301 98.635, 108.490 98.823 C 108.678 99.011, 111.345 98.851, 114.416 98.467 L 120 97.770 120 70.885 C 120 56.098, 119.888 44.001, 119.750 44.002 C 119.612 44.003, 116.946 56.261, 113.824 71.242 M 86.650 80.558 C 86.324 84.376, 85.773 94.137, 85.425 102.249 L 84.792 116.999 91.387 113.249 C 95.014 111.187, 97.986 109.217, 97.991 108.872 C 97.996 108.527, 95.579 100.453, 92.621 90.930 L 87.242 73.616 86.650 80.558" stroke="none" fill="black" fill-rule="evenodd"/>
</svg>